rotated_Sprint_04500001_forces_filt50Hz.mot
version=1
nRows=43
nColumns=19
inDegrees=yes
endheader
time	R_ground_force_vx	R_ground_force_vy	R_ground_force_vz	R_ground_force_px	R_ground_force_py	R_ground_force_pz	R_ground_torque_x	R_ground_torque_y	R_ground_torque_z	L_ground_force_vx	L_ground_force_vy	L_ground_force_vz	L_ground_force_px	L_ground_force_py	L_ground_force_pz	L_ground_torque_x	L_ground_torque_y	L_ground_torque_z	
0.000000	  0.000000	  0.000000	  0.000000	  0.299405	  0.000000	 -0.244312	  0.000000	  0.000000	  0.000000	  0.000000	  0.000000	  0.000000	  0.742270	  0.000000	 -0.233361	  0.000000	  0.000000	  0.000000
0.000500	  0.000000	  0.000000	  0.000000	  0.298670	 -0.000000	 -0.245462	  0.000000	  0.000000	  0.000000	  0.000000	  0.000000	  0.000000	  0.744619	 -0.000000	 -0.231588	  0.000000	  0.000000	  0.000000
0.001000	  0.000000	  0.000000	  0.000000	  0.297935	 -0.000000	 -0.246612	  0.000000	  0.000000	  0.000000	  0.000000	  0.000000	  0.000000	  0.746969	 -0.000000	 -0.229816	  0.000000	  0.000000	  0.000000
0.001500	  0.000000	  0.000000	  0.000000	  0.297200	 -0.000000	 -0.247762	  0.000000	  0.000000	  0.000000	  0.000000	  0.000000	  0.000000	  0.749318	 -0.000000	 -0.228043	  0.000000	  0.000000	  0.000000
0.002000	  0.000000	  0.000000	  0.000000	  0.296465	 -0.000000	 -0.248912	  0.000000	  0.000000	  0.000000	  0.000000	  0.000000	  0.000000	  0.751667	 -0.000000	 -0.226271	  0.000000	  0.000000	  0.000000
0.002500	  0.000000	  0.000000	  0.000000	  0.295729	  0.000000	 -0.250063	  0.000000	  0.000000	  0.000000	  0.000000	  0.000000	  0.000000	  0.754017	  0.000000	 -0.224498	  0.000000	  0.000000	  0.000000
0.003000	  0.000000	  0.000000	  0.000000	  0.294994	  0.000000	 -0.251213	  0.000000	  0.000000	  0.000000	  0.000000	  0.000000	  0.000000	  0.756366	  0.000000	 -0.222726	  0.000000	  0.000000	  0.000000
0.003500	  0.000000	  0.000000	  0.000000	  0.294259	  0.000000	 -0.252363	  0.000000	  0.000000	  0.000000	  0.000000	  0.000000	  0.000000	  0.758715	  0.000000	 -0.220953	  0.000000	  0.000000	  0.000000
0.004000	  0.000000	  0.000000	  0.000000	  0.293524	  0.000000	 -0.253513	  0.000000	  0.000000	  0.000000	  0.000000	  0.000000	  0.000000	  0.761064	  0.000000	 -0.219181	  0.000000	  0.000000	  0.000000
0.004500	  0.000000	  0.000000	  0.000000	  0.292789	  0.000000	 -0.254663	  0.000000	  0.000000	  0.000000	  0.000000	  0.000000	  0.000000	  0.763414	  0.000000	 -0.217409	  0.000000	  0.000000	  0.000000
0.005000	  0.000000	  0.000000	  0.000000	  0.292054	  0.000000	 -0.255813	  0.000000	  0.000000	  0.000000	  0.000000	  0.000000	  0.000000	  0.765763	  0.000000	 -0.215636	  0.000000	  0.000000	  0.000000
0.005500	  0.000000	  0.000000	  0.000000	  0.291338	  0.000000	 -0.256976	  0.000000	  0.000000	  0.000000	  0.000000	  0.000000	  0.000000	  0.768181	  0.000000	 -0.213931	  0.000000	  0.000000	  0.000000
0.006000	  0.000000	  0.000000	  0.000000	  0.290622	  0.000000	 -0.258139	  0.000000	  0.000000	  0.000000	  0.000000	  0.000000	  0.000000	  0.770599	  0.000000	 -0.212226	  0.000000	  0.000000	  0.000000
0.006500	  0.000000	  0.000000	  0.000000	  0.289907	  0.000000	 -0.259302	  0.000000	  0.000000	  0.000000	  0.000000	  0.000000	  0.000000	  0.773016	  0.000000	 -0.210521	  0.000000	  0.000000	  0.000000
0.007000	  0.000000	  0.000000	  0.000000	  0.289191	  0.000000	 -0.260465	  0.000000	  0.000000	  0.000000	  0.000000	  0.000000	  0.000000	  0.775434	  0.000000	 -0.208816	  0.000000	  0.000000	  0.000000
0.007500	  0.000000	  0.000000	  0.000000	  0.288475	  0.000000	 -0.261628	  0.000000	  0.000000	  0.000000	  0.000000	  0.000000	  0.000000	  0.777852	  0.000000	 -0.207111	  0.000000	  0.000000	  0.000000
0.008000	  0.000000	  0.000000	  0.000000	  0.287759	  0.000000	 -0.262790	  0.000000	  0.000000	  0.000000	  0.000000	  0.000000	  0.000000	  0.780270	  0.000000	 -0.205407	  0.000000	  0.000000	  0.000000
0.008500	  0.000000	  0.000000	  0.000000	  0.287043	  0.000000	 -0.263953	  0.000000	  0.000000	  0.000000	  0.000000	  0.000000	  0.000000	  0.782688	  0.000000	 -0.203702	  0.000000	  0.000000	  0.000000
0.009000	  0.000000	  0.000000	  0.000000	  0.286328	  0.000000	 -0.265116	  0.000000	  0.000000	  0.000000	  0.000000	  0.000000	  0.000000	  0.785105	  0.000000	 -0.201997	  0.000000	  0.000000	  0.000000
0.009500	  0.000000	  0.000000	  0.000000	  0.285612	  0.000000	 -0.266279	  0.000000	  0.000000	  0.000000	  0.000000	  0.000000	  0.000000	  0.787523	  0.000000	 -0.200292	  0.000000	  0.000000	  0.000000
0.010000	  0.000000	  0.000000	  0.000000	  0.284896	  0.000000	 -0.267442	  0.000000	  0.000000	  0.000000	  0.000000	  0.000000	  0.000000	  0.789941	  0.000000	 -0.198587	  0.000000	  0.000000	  0.000000
0.010500	  0.000000	  0.000000	  0.000000	  0.284227	  0.000000	 -0.268630	  0.000000	  0.000000	  0.000000	  0.000000	  0.000000	  0.000000	  0.792424	  0.000000	 -0.196955	  0.000000	  0.000000	  0.000000
0.011000	  0.000000	  0.000000	  0.000000	  0.283559	  0.000000	 -0.269818	  0.000000	  0.000000	  0.000000	  0.000000	  0.000000	  0.000000	  0.794906	  0.000000	 -0.195323	  0.000000	  0.000000	  0.000000
0.011500	  0.000000	  0.000000	  0.000000	  0.282890	  0.000000	 -0.271005	  0.000000	  0.000000	  0.000000	  0.000000	  0.000000	  0.000000	  0.797389	  0.000000	 -0.193692	  0.000000	  0.000000	  0.000000
0.012000	  0.000000	  0.000000	  0.000000	  0.282222	  0.000000	 -0.272193	  0.000000	  0.000000	  0.000000	  0.000000	  0.000000	  0.000000	  0.799871	  0.000000	 -0.192060	  0.000000	  0.000000	  0.000000
0.012500	  0.000000	  0.000000	  0.000000	  0.281553	  0.000000	 -0.273381	  0.000000	  0.000000	  0.000000	  0.000000	  0.000000	  0.000000	  0.802354	  0.000000	 -0.190428	  0.000000	  0.000000	  0.000000
0.013000	  0.000000	  0.000000	  0.000000	  0.280884	  0.000000	 -0.274569	  0.000000	  0.000000	  0.000000	  0.000000	  0.000000	  0.000000	  0.804837	  0.000000	 -0.188796	  0.000000	  0.000000	  0.000000
0.013500	  0.000000	  0.000000	  0.000000	  0.280216	  0.000000	 -0.275757	  0.000000	  0.000000	  0.000000	  0.000000	  0.000000	  0.000000	  0.807319	  0.000000	 -0.187164	  0.000000	  0.000000	  0.000000
0.014000	  0.000000	  0.000000	  0.000000	  0.279547	  0.000000	 -0.276944	  0.000000	  0.000000	  0.000000	  0.000000	  0.000000	  0.000000	  0.809802	  0.000000	 -0.185533	  0.000000	  0.000000	  0.000000
0.014500	  0.000000	  0.000000	  0.000000	  0.278879	  0.000000	 -0.278132	  0.000000	  0.000000	  0.000000	  0.000000	  0.000000	  0.000000	  0.812284	  0.000000	 -0.183901	  0.000000	  0.000000	  0.000000
0.015000	  0.000000	  0.000000	  0.000000	  0.278210	  0.000000	 -0.279320	  0.000000	  0.000000	  0.000000	  0.000000	  0.000000	  0.000000	  0.814767	  0.000000	 -0.182269	  0.000000	  0.000000	  0.000000
0.015500	  0.000000	  0.000000	  0.000000	  0.277659	  0.000000	 -0.280561	  0.000000	  0.000000	  0.000000	  0.000000	  0.000000	  0.000000	  0.817241	  0.000000	 -0.180725	  0.000000	  0.000000	  0.000000
0.016000	  0.000000	  0.000000	  0.000000	  0.277108	  0.000000	 -0.281802	  0.000000	  0.000000	  0.000000	  0.000000	  0.000000	  0.000000	  0.819714	  0.000000	 -0.179181	  0.000000	  0.000000	  0.000000
0.016500	  0.000000	  0.000000	  0.000000	  0.276557	  0.000000	 -0.283043	  0.000000	  0.000000	  0.000000	  0.000000	  0.000000	  0.000000	  0.822188	  0.000000	 -0.177637	  0.000000	  0.000000	  0.000000
0.017000	  0.000000	  0.000000	  0.000000	  0.276006	  0.000000	 -0.284284	  0.000000	  0.000000	  0.000000	  0.000000	  0.000000	  0.000000	  0.824662	  0.000000	 -0.176093	  0.000000	  0.000000	  0.000000
0.017500	  0.000000	  0.000000	  0.000000	  0.275454	  0.000000	 -0.285525	  0.000000	  0.000000	  0.000000	  0.000000	  0.000000	  0.000000	  0.827136	  0.000000	 -0.174548	  0.000000	  0.000000	  0.000000
0.018000	  0.000000	  0.000000	  0.000000	  0.274903	  0.000000	 -0.286766	  0.000000	  0.000000	  0.000000	  0.000000	  0.000000	  0.000000	  0.829609	  0.000000	 -0.173004	  0.000000	  0.000000	  0.000000
0.018500	  0.000000	  0.000000	  0.000000	  0.274352	  0.000000	 -0.288007	  0.000000	  0.000000	  0.000000	  0.000000	  0.000000	  0.000000	  0.832083	  0.000000	 -0.171460	  0.000000	  0.000000	  0.000000
0.019000	  0.000000	  0.000000	  0.000000	  0.273801	  0.000000	 -0.289248	  0.000000	  0.000000	  0.000000	  0.000000	  0.000000	  0.000000	  0.834557	  0.000000	 -0.169916	  0.000000	  0.000000	  0.000000
0.019500	  0.000000	  0.000000	  0.000000	  0.273250	  0.000000	 -0.290489	  0.000000	  0.000000	  0.000000	  0.000000	  0.000000	  0.000000	  0.837030	  0.000000	 -0.168372	  0.000000	  0.000000	  0.000000
0.020000	  0.000000	  0.000000	  0.000000	  0.272699	  0.000000	 -0.291730	  0.000000	  0.000000	  0.000000	  0.000000	  0.000000	  0.000000	  0.839504	  0.000000	 -0.166828	  0.000000	  0.000000	  0.000000
0.020500	  0.000000	  0.000000	  0.000000	  0.272204	  0.000000	 -0.292975	  0.000000	  0.000000	  0.000000	  0.000000	  0.000000	  0.000000	  0.842073	  0.000000	 -0.165406	  0.000000	  0.000000	  0.000000
0.021000	  0.000000	  0.000000	  0.000000	  0.271709	  0.000000	 -0.294221	  0.000000	  0.000000	  0.000000	  0.000000	  0.000000	  0.000000	  0.844641	  0.000000	 -0.163984	  0.000000	  0.000000	  0.000000
